HIERARCHY
ROOT Root
{
	OFFSET 0.00000 0.00000 0.00000
	CHANNELS 6 Xposition Yposition Zposition Zrotation Xrotation Yrotation
	JOINT Hips
	{
		OFFSET 0 0 0	
		CHANNELS 3 Zrotation Xrotation Yrotation
		JOINT Spine
		{
			OFFSET 0 4 0	
			CHANNELS 3 Zrotation Xrotation Yrotation
			JOINT Spine1
			{
				OFFSET 0 19.4 0	
				CHANNELS 3 Zrotation Xrotation Yrotation
				JOINT Spine2
				{
					OFFSET 0 16.6 0	
					CHANNELS 3 Zrotation Xrotation Yrotation
					JOINT LeftCollar
					{
						OFFSET 0 10 0	
						CHANNELS 3 Zrotation Xrotation Yrotation
						JOINT LeftArm
						{
							OFFSET 15.6 -2 3	
							CHANNELS 3 Zrotation Xrotation Yrotation
							JOINT LeftForeArm
							{
								OFFSET 3.5 -27 -1	
								CHANNELS 3 Zrotation Xrotation Yrotation
								JOINT LeftHand
								{
									OFFSET 1 -27 1	
									CHANNELS 3 Zrotation Xrotation Yrotation
									End Site
									{
										OFFSET 0 -15 0
									}
								}
							}
						}
					}
					JOINT RightCollar
					{
						OFFSET 0 10 0	
						CHANNELS 3 Zrotation Xrotation Yrotation
						JOINT RightArm
						{
							OFFSET -15.6 -2 3	
							CHANNELS 3 Zrotation Xrotation Yrotation
							JOINT RightForeArm
							{
								OFFSET -3.5 -27 -1	
								CHANNELS 3 Zrotation Xrotation Yrotation
								JOINT RightHand
								{
									OFFSET -1 -27 1	
									CHANNELS 3 Zrotation Xrotation Yrotation
									End Site
									{
										OFFSET 0 -15 0
									}
								}
							}
						}
					}
					JOINT Neck
					{
						OFFSET 0 10 0	
						CHANNELS 3 Zrotation Xrotation Yrotation
						JOINT Head
						{
							OFFSET 0 12.7 3	
							CHANNELS 3 Zrotation Xrotation Yrotation
							End Site
							{
								OFFSET 0 12.7 3
							}
						}
					}
				}
			}
		}
	}
	JOINT LeftHip
	{
		OFFSET 0 0 0	
		CHANNELS 3 Zrotation Xrotation Yrotation
		JOINT LeftUpLeg
		{
			OFFSET 8.8 -6 0	
			CHANNELS 3 Zrotation Xrotation Yrotation
			JOINT LeftLeg
			{
				OFFSET 0 -39 2	
				CHANNELS 3 Zrotation Xrotation Yrotation
				JOINT LeftFoot
				{
					OFFSET 0 -43 -2	
					CHANNELS 3 Zrotation Xrotation Yrotation
					JOINT LeftFootFront
					{
						OFFSET 0 -7 8.5	
						CHANNELS 3 Zrotation Xrotation Yrotation
						End Site
						{
							OFFSET 0 -0.5 9
						}
					}
				}
				JOINT LeftHeel
				{
					OFFSET 0 -43 -2	
					CHANNELS 3 Zrotation Xrotation Yrotation
					End Site
					{
						OFFSET 0 -7.5 -5
					}
				}
			}
		}
	}
	JOINT RightHip
	{
		OFFSET 0 0 0	
		CHANNELS 3 Zrotation Xrotation Yrotation
		JOINT RightUpLeg
		{
			OFFSET -8.8 -6 0	
			CHANNELS 3 Zrotation Xrotation Yrotation
			JOINT RightLeg
			{
				OFFSET 0 -39 2	
				CHANNELS 3 Zrotation Xrotation Yrotation
				JOINT RightFoot
				{
					OFFSET 0 -43 -2	
					CHANNELS 3 Zrotation Xrotation Yrotation
					JOINT RightFootFront
					{
						OFFSET 0 -7 8.5	
						CHANNELS 3 Zrotation Xrotation Yrotation
						End Site
						{
							OFFSET 0 -0.5 9
						}
					}
				}
				JOINT RightHeel
				{
					OFFSET 0 -43 -2	
					CHANNELS 3 Zrotation Xrotation Yrotation
					End Site
					{
						OFFSET 0 -7.5 -5
					}
				}
			}
		}
	}
}
MOTION
Frames: 33
Frame Time: 0.025
0 95.5 0 -0 0 -0 -0 0 -0 -0 0 -0 -5.3101 16.724 6.3766 -0 0 -0 -0 0 -0 18.892 -18.1 15.94 -37.413 -62.596 -55.402 -0 0 -0 -0 0 -0 -10.528 -26.969 -6.2609 74.167 11.141 4.4944 -0 0 -0 -0 0 -0 -0 0 -0 -0 0 -0 -0 0 -0 -0 0 -0 -0 0 -0 -0 0 -0 -0 0 -0 -0 0 -0 -0 0 -0 -0 0 -0 -0 0 -0 -0 0 -0 -0 0 -0 
0 95.5 0 -0 0 -0 -0 0 -0 -0 0 -0 -5.2221 16.471 6.4164 -0 0 -0 -0 0 -0 19.68 -16.882 16.302 -39.109 -62.246 -59.154 -0 0 -0 -0 0 -0 -9.2407 -29.767 -4.8105 73.902 11.732 4.5587 -0 0 -0 -0 0 -0 -0 0 -0 -0 0 -0 -0 0 -0 -0 0 -0 -0 0 -0 -0 0 -0 -0 0 -0 -0 0 -0 -0 0 -0 -0 0 -0 -0 0 -0 -0 0 -0 -0 0 -0 
0 95.5 0 -0 0 -0 -0 0 -0 -0 0 -0 -5.1118 16.236 6.5431 -0 0 -0 -0 0 -0 20.748 -16.184 16.008 -40.718 -61.851 -60.827 -0 0 -0 -0 0 -0 -7.7778 -32.706 -3.2217 73.573 12.087 4.3035 -0 0 -0 -0 0 -0 -0 0 -0 -0 0 -0 -0 0 -0 -0 0 -0 -0 0 -0 -0 0 -0 -0 0 -0 -0 0 -0 -0 0 -0 -0 0 -0 -0 0 -0 -0 0 -0 -0 0 -0 
0 95.5 0 -0 0 -0 -0 0 -0 -0 0 -0 -5.0133 15.993 6.8238 -0 0 -0 -0 0 -0 22.076 -15.978 15.147 -41.208 -61.754 -60.799 -0 0 -0 -0 0 -0 -6.1832 -35.644 -1.5769 73.224 12.211 3.7391 -0 0 -0 -0 0 -0 -0 0 -0 -0 0 -0 -0 0 -0 -0 0 -0 -0 0 -0 -0 0 -0 -0 0 -0 -0 0 -0 -0 0 -0 -0 0 -0 -0 0 -0 -0 0 -0 -0 0 -0 
0 95.5 0 -0 0 -0 -0 0 -0 -0 0 -0 -4.9714 15.747 7.24 -0 0 -0 -0 0 -0 23.615 -16.181 14.038 -40.165 -62.343 -60.22 -0 0 -0 -0 0 -0 -4.4746 -38.424 0.071775 72.878 12.12 3.0472 -0 0 -0 -0 0 -0 -0 0 -0 -0 0 -0 -0 0 -0 -0 0 -0 -0 0 -0 -0 0 -0 -0 0 -0 -0 0 -0 -0 0 -0 -0 0 -0 -0 0 -0 -0 0 -0 -0 0 -0 
0 95.5 0 -0 0 -0 -0 0 -0 -0 0 -0 -4.9977 15.525 7.7354 -0 0 -0 -0 0 -0 25.247 -16.778 13.055 -38.259 -63.309 -59.558 -0 0 -0 -0 0 -0 -2.6189 -40.968 1.676 72.576 11.891 2.2827 -0 0 -0 -0 0 -0 -0 0 -0 -0 0 -0 -0 0 -0 -0 0 -0 -0 0 -0 -0 0 -0 -0 0 -0 -0 0 -0 -0 0 -0 -0 0 -0 -0 0 -0 -0 0 -0 -0 0 -0 
0 95.5 0 -0 0 -0 -0 0 -0 -0 0 -0 -5.077 15.345 8.2727 -0 0 -0 -0 0 -0 26.821 -17.746 12.414 -36.725 -64.074 -58.853 -0 0 -0 -0 0 -0 -0.67261 -43.278 3.1978 72.4 11.487 1.5953 -0 0 -0 -0 0 -0 -0 0 -0 -0 0 -0 -0 0 -0 -0 0 -0 -0 0 -0 -0 0 -0 -0 0 -0 -0 0 -0 -0 0 -0 -0 0 -0 -0 0 -0 -0 0 -0 -0 0 -0 
0 95.5 0 -0 0 -0 -0 0 -0 -0 0 -0 -5.1858 15.228 8.7982 -0 0 -0 -0 0 -0 28.223 -19.026 12.051 -35.611 -64.574 -57.945 -0 0 -0 -0 0 -0 1.229 -45.38 4.782 72.356 10.689 1.2425 -0 0 -0 -0 0 -0 -0 0 -0 -0 0 -0 -0 0 -0 -0 0 -0 -0 0 -0 -0 0 -0 -0 0 -0 -0 0 -0 -0 0 -0 -0 0 -0 -0 0 -0 -0 0 -0 -0 0 -0 
0 95.5 0 -0 0 -0 -0 0 -0 -0 0 -0 -5.3001 15.14 9.2508 -0 0 -0 -0 0 -0 29.438 -20.544 11.841 -33.947 -65.046 -56.737 -0 0 -0 -0 0 -0 3.0316 -47.292 6.5726 72.362 9.4349 1.1335 -0 0 -0 -0 0 -0 -0 0 -0 -0 0 -0 -0 0 -0 -0 0 -0 -0 0 -0 -0 0 -0 -0 0 -0 -0 0 -0 -0 0 -0 -0 0 -0 -0 0 -0 -0 0 -0 -0 0 -0 
0 95.5 0 -0 0 -0 -0 0 -0 -0 0 -0 -5.397 15.039 9.5831 -0 0 -0 -0 0 -0 30.501 -22.225 11.865 -31.459 -65.423 -55.401 -0 0 -0 -0 0 -0 4.7455 -49.048 8.4949 72.39 7.9393 0.92395 -0 0 -0 -0 0 -0 -0 0 -0 -0 0 -0 -0 0 -0 -0 0 -0 -0 0 -0 -0 0 -0 -0 0 -0 -0 0 -0 -0 0 -0 -0 0 -0 -0 0 -0 -0 0 -0 -0 0 -0 
0 95.5 0 -0 0 -0 -0 0 -0 -0 0 -0 -5.4549 14.935 9.7595 -0 0 -0 -0 0 -0 31.488 -24.031 12.333 -28.737 -65.414 -54.137 -0 0 -0 -0 0 -0 6.3834 -50.633 10.486 72.474 6.3186 0.4313 -0 0 -0 -0 0 -0 -0 0 -0 -0 0 -0 -0 0 -0 -0 0 -0 -0 0 -0 -0 0 -0 -0 0 -0 -0 0 -0 -0 0 -0 -0 0 -0 -0 0 -0 -0 0 -0 -0 0 -0 
0 95.5 0 -0 0 -0 -0 0 -0 -0 0 -0 -5.4556 14.837 9.7837 -0 0 -0 -0 0 -0 32.46 -25.927 13.272 -26.203 -64.9 -52.955 -0 0 -0 -0 0 -0 7.9046 -52.01 12.576 72.605 4.4783 -0.32587 -0 0 -0 -0 0 -0 -0 0 -0 -0 0 -0 -0 0 -0 -0 0 -0 -0 0 -0 -0 0 -0 -0 0 -0 -0 0 -0 -0 0 -0 -0 0 -0 -0 0 -0 -0 0 -0 -0 0 -0 
0 95.5 0 -0 0 -0 -0 0 -0 -0 0 -0 -5.4072 14.744 9.7142 -0 0 -0 -0 0 -0 33.459 -27.85 14.454 -23.592 -63.974 -51.535 -0 0 -0 -0 0 -0 9.2872 -53.246 14.583 72.644 2.5399 -1.2343 -0 0 -0 -0 0 -0 -0 0 -0 -0 0 -0 -0 0 -0 -0 0 -0 -0 0 -0 -0 0 -0 -0 0 -0 -0 0 -0 -0 0 -0 -0 0 -0 -0 0 -0 -0 0 -0 -0 0 -0 
0 95.5 0 -0 0 -0 -0 0 -0 -0 0 -0 -5.339 14.66 9.6111 -0 0 -0 -0 0 -0 34.54 -29.727 15.63 -20.527 -62.816 -49.588 -0 0 -0 -0 0 -0 10.475 -54.388 16.006 72.551 0.9434 -2.0956 -0 0 -0 -0 0 -0 -0 0 -0 -0 0 -0 -0 0 -0 -0 0 -0 -0 0 -0 -0 0 -0 -0 0 -0 -0 0 -0 -0 0 -0 -0 0 -0 -0 0 -0 -0 0 -0 -0 0 -0 
0 95.5 0 -0 0 -0 -0 0 -0 -0 0 -0 -5.2866 14.586 9.5255 -0 0 -0 -0 0 -0 35.764 -31.501 16.66 -17.108 -61.604 -47.193 -0 0 -0 -0 0 -0 11.329 -55.433 16.564 72.484 -0.11781 -2.87 -0 0 -0 -0 0 -0 -0 0 -0 -0 0 -0 -0 0 -0 -0 0 -0 -0 0 -0 -0 0 -0 -0 0 -0 -0 0 -0 -0 0 -0 -0 0 -0 -0 0 -0 -0 0 -0 -0 0 -0 
0 95.5 0 -0 0 -0 -0 0 -0 -0 0 -0 -5.2779 14.539 9.4816 -0 0 -0 -0 0 -0 37.199 -33.127 17.565 -13.719 -60.418 -44.531 -0 0 -0 -0 0 -0 11.736 -56.401 16.371 72.581 -0.79332 -3.6299 -0 0 -0 -0 0 -0 -0 0 -0 -0 0 -0 -0 0 -0 -0 0 -0 -0 0 -0 -0 0 -0 -0 0 -0 -0 0 -0 -0 0 -0 -0 0 -0 -0 0 -0 -0 0 -0 -0 0 -0 
0 95.5 0 -0 0 -0 -0 0 -0 -0 0 -0 -5.3158 14.523 9.4677 -0 0 -0 -0 0 -0 38.86 -34.547 18.434 -10.678 -59.259 -41.747 -0 0 -0 -0 0 -0 11.64 -57.271 15.625 72.837 -1.3056 -4.2914 -0 0 -0 -0 0 -0 -0 0 -0 -0 0 -0 -0 0 -0 -0 0 -0 -0 0 -0 -0 0 -0 -0 0 -0 -0 0 -0 -0 0 -0 -0 0 -0 -0 0 -0 -0 0 -0 -0 0 -0 
0 95.5 0 -0 0 -0 -0 0 -0 -0 0 -0 -5.3851 14.548 9.4605 -0 0 -0 -0 0 -0 40.663 -35.723 19.419 -8.21 -58.126 -39.209 -0 0 -0 -0 0 -0 11.063 -58.039 14.482 73.185 -1.797 -4.7645 -0 0 -0 -0 0 -0 -0 0 -0 -0 0 -0 -0 0 -0 -0 0 -0 -0 0 -0 -0 0 -0 -0 0 -0 -0 0 -0 -0 0 -0 -0 0 -0 -0 0 -0 -0 0 -0 -0 0 -0 
0 95.5 0 -0 0 -0 -0 0 -0 -0 0 -0 -5.4641 14.599 9.4452 -0 0 -0 -0 0 -0 42.495 -36.6 20.671 -6.4615 -57.097 -37.357 -0 0 -0 -0 0 -0 10.078 -58.683 13.082 73.598 -2.332 -5.0925 -0 0 -0 -0 0 -0 -0 0 -0 -0 0 -0 -0 0 -0 -0 0 -0 -0 0 -0 -0 0 -0 -0 0 -0 -0 0 -0 -0 0 -0 -0 0 -0 -0 0 -0 -0 0 -0 -0 0 -0 
0 95.5 0 -0 0 -0 -0 0 -0 -0 0 -0 -5.5279 14.648 9.4209 -0 0 -0 -0 0 -0 44.243 -37.119 22.193 -5.5205 -56.281 -36.292 -0 0 -0 -0 0 -0 8.7874 -59.178 11.549 74.034 -2.885 -5.3942 -0 0 -0 -0 0 -0 -0 0 -0 -0 0 -0 -0 0 -0 -0 0 -0 -0 0 -0 -0 0 -0 -0 0 -0 -0 0 -0 -0 0 -0 -0 0 -0 -0 0 -0 -0 0 -0 -0 0 -0 
0 95.5 0 -0 0 -0 -0 0 -0 -0 0 -0 -5.5552 14.683 9.3883 -0 0 -0 -0 0 -0 45.831 -37.291 23.85 -5.2969 -55.688 -35.723 -0 0 -0 -0 0 -0 7.3294 -59.532 9.9634 74.426 -3.3906 -5.704 -0 0 -0 -0 0 -0 -0 0 -0 -0 0 -0 -0 0 -0 -0 0 -0 -0 0 -0 -0 0 -0 -0 0 -0 -0 0 -0 -0 0 -0 -0 0 -0 -0 0 -0 -0 0 -0 -0 0 -0 
0 95.5 0 -0 0 -0 -0 0 -0 -0 0 -0 -5.5429 14.717 9.3617 -0 0 -0 -0 0 -0 47.229 -37.193 25.488 -5.4943 -55.274 -35.346 -0 0 -0 -0 0 -0 5.8017 -59.754 8.3085 74.743 -3.8103 -5.9131 -0 0 -0 -0 0 -0 -0 0 -0 -0 0 -0 -0 0 -0 -0 0 -0 -0 0 -0 -0 0 -0 -0 0 -0 -0 0 -0 -0 0 -0 -0 0 -0 -0 0 -0 -0 0 -0 -0 0 -0 
0 95.5 0 -0 0 -0 -0 0 -0 -0 0 -0 -5.5061 14.762 9.3505 -0 0 -0 -0 0 -0 48.419 -36.893 27.047 -5.8724 -55.03 -35.12 -0 0 -0 -0 0 -0 4.2764 -59.852 6.6553 75.014 -4.1807 -6.0377 -0 0 -0 -0 0 -0 -0 0 -0 -0 0 -0 -0 0 -0 -0 0 -0 -0 0 -0 -0 0 -0 -0 0 -0 -0 0 -0 -0 0 -0 -0 0 -0 -0 0 -0 -0 0 -0 -0 0 -0 
0 95.5 0 -0 0 -0 -0 0 -0 -0 0 -0 -5.4621 14.819 9.3291 -0 0 -0 -0 0 -0 49.395 -36.428 28.502 -6.3024 -54.957 -35.015 -0 0 -0 -0 0 -0 2.845 -59.856 5.124 75.267 -4.495 -6.2201 -0 0 -0 -0 0 -0 -0 0 -0 -0 0 -0 -0 0 -0 -0 0 -0 -0 0 -0 -0 0 -0 -0 0 -0 -0 0 -0 -0 0 -0 -0 0 -0 -0 0 -0 -0 0 -0 -0 0 -0 
0 95.5 0 -0 0 -0 -0 0 -0 -0 0 -0 -5.413 14.868 9.2956 -0 0 -0 -0 0 -0 50.118 -35.843 29.754 -6.6909 -55.032 -34.864 -0 0 -0 -0 0 -0 1.5433 -59.757 3.7059 75.485 -4.7024 -6.451 -0 0 -0 -0 0 -0 -0 0 -0 -0 0 -0 -0 0 -0 -0 0 -0 -0 0 -0 -0 0 -0 -0 0 -0 -0 0 -0 -0 0 -0 -0 0 -0 -0 0 -0 -0 0 -0 -0 0 -0 
0 95.5 0 -0 0 -0 -0 0 -0 -0 0 -0 -5.3533 14.896 9.2722 -0 0 -0 -0 0 -0 50.555 -35.194 30.71 -6.9989 -55.192 -34.519 -0 0 -0 -0 0 -0 0.35428 -59.538 2.4036 75.641 -4.8581 -6.6281 -0 0 -0 -0 0 -0 -0 0 -0 -0 0 -0 -0 0 -0 -0 0 -0 -0 0 -0 -0 0 -0 -0 0 -0 -0 0 -0 -0 0 -0 -0 0 -0 -0 0 -0 -0 0 -0 -0 0 -0 
0 95.5 0 -0 0 -0 -0 0 -0 -0 0 -0 -5.281 14.914 9.2756 -0 0 -0 -0 0 -0 50.73 -34.53 31.357 -7.1825 -55.366 -33.909 -0 0 -0 -0 0 -0 -0.79262 -59.218 1.1803 75.75 -4.9962 -6.7183 -0 0 -0 -0 0 -0 -0 0 -0 -0 0 -0 -0 0 -0 -0 0 -0 -0 0 -0 -0 0 -0 -0 0 -0 -0 0 -0 -0 0 -0 -0 0 -0 -0 0 -0 -0 0 -0 -0 0 -0 
0 95.5 0 -0 0 -0 -0 0 -0 -0 0 -0 -5.2014 14.931 9.2662 -0 0 -0 -0 0 -0 50.691 -33.848 31.745 -7.1898 -55.529 -33.041 -0 0 -0 -0 0 -0 -1.897 -58.788 0.043541 75.846 -5.0507 -6.748 -0 0 -0 -0 0 -0 -0 0 -0 -0 0 -0 -0 0 -0 -0 0 -0 -0 0 -0 -0 0 -0 -0 0 -0 -0 0 -0 -0 0 -0 -0 0 -0 -0 0 -0 -0 0 -0 -0 0 -0 
0 95.5 0 -0 0 -0 -0 0 -0 -0 0 -0 -5.1114 14.931 9.1831 -0 0 -0 -0 0 -0 50.47 -33.114 31.98 -7.1753 -55.647 -32.018 -0 0 -0 -0 0 -0 -2.8863 -58.207 -0.8627 75.898 -5.0061 -6.756 -0 0 -0 -0 0 -0 -0 0 -0 -0 0 -0 -0 0 -0 -0 0 -0 -0 0 -0 -0 0 -0 -0 0 -0 -0 0 -0 -0 0 -0 -0 0 -0 -0 0 -0 -0 0 -0 -0 0 -0 
0 95.5 0 -0 0 -0 -0 0 -0 -0 0 -0 -4.9968 14.898 9.0167 -0 0 -0 -0 0 -0 50.08 -32.335 32.175 -7.4248 -55.612 -30.95 -0 0 -0 -0 0 -0 -3.7696 -57.453 -1.4968 75.832 -4.8828 -6.7505 -0 0 -0 -0 0 -0 -0 0 -0 -0 0 -0 -0 0 -0 -0 0 -0 -0 0 -0 -0 0 -0 -0 0 -0 -0 0 -0 -0 0 -0 -0 0 -0 -0 0 -0 -0 0 -0 -0 0 -0 
0 95.5 0 -0 0 -0 -0 0 -0 -0 0 -0 -4.855 14.858 8.8305 -0 0 -0 -0 0 -0 49.518 -31.592 32.361 -7.961 -55.296 -29.777 -0 0 -0 -0 0 -0 -4.7007 -56.485 -2.0067 75.609 -4.725 -6.6515 -0 0 -0 -0 0 -0 -0 0 -0 -0 0 -0 -0 0 -0 -0 0 -0 -0 0 -0 -0 0 -0 -0 0 -0 -0 0 -0 -0 0 -0 -0 0 -0 -0 0 -0 -0 0 -0 -0 0 -0 
0 95.5 0 -0 0 -0 -0 0 -0 -0 0 -0 -4.7229 14.909 8.7355 -0 0 -0 -0 0 -0 48.797 -30.994 32.466 -8.4746 -54.667 -28.199 -0 0 -0 -0 0 -0 -5.8576 -55.285 -2.4357 75.229 -4.7586 -6.3443 -0 0 -0 -0 0 -0 -0 0 -0 -0 0 -0 -0 0 -0 -0 0 -0 -0 0 -0 -0 0 -0 -0 0 -0 -0 0 -0 -0 0 -0 -0 0 -0 -0 0 -0 -0 0 -0 -0 0 -0 
0 95.5 0 -0 0 -0 -0 0 -0 -0 0 -0 -4.6597 15.112 8.8344 -0 0 -0 -0 0 -0 47.945 -30.563 32.305 -8.7022 -53.866 -26.011 -0 0 -0 -0 0 -0 -7.284 -53.866 -2.7023 74.659 -5.2307 -5.8154 -0 0 -0 -0 0 -0 -0 0 -0 -0 0 -0 -0 0 -0 -0 0 -0 -0 0 -0 -0 0 -0 -0 0 -0 -0 0 -0 -0 0 -0 -0 0 -0 -0 0 -0 -0 0 -0 -0 0 -0 
